<?xml version="1.0" standalone="no"?>
<!DOCTYPE svg PUBLIC "-//W3C//DTD SVG 20010904//EN"
 "http://www.w3.org/TR/2001/REC-SVG-20010904/DTD/svg10.dtd">
<svg version="1.0" xmlns="http://www.w3.org/2000/svg"
 width="260.000000pt" height="260.000000pt" viewBox="0 0 260.000000 260.000000"
 preserveAspectRatio="xMidYMid meet">
<metadata>
Created by potrace 1.11, written by Peter Selinger 2001-2013
</metadata>
<g transform="translate(0.000000,260.000000) scale(0.100000,-0.100000)"
fill="#000000" stroke="none">
<path d="M755 2310 c-292 -148 -534 -270 -539 -272 -5 -2 -10 -307 -10 -737
l-1 -734 552 -275 551 -276 549 275 548 274 3 735 2 735 -545 273 c-300 149
-553 271 -563 271 -9 -1 -255 -122 -547 -269z m246 -647 c86 -39 128 -120 128
-248 1 -98 -19 -146 -85 -210 l-46 -45 86 -190 c47 -104 86 -192 86 -195 0 -3
-32 -5 -71 -3 l-71 3 -76 175 c-41 96 -76 176 -77 177 -1 2 -36 6 -78 9 l-77
6 0 -186 0 -186 -65 0 -65 0 0 461 0 461 183 -4 c158 -3 188 -7 228 -25z m451
-28 c9 -27 54 -165 98 -305 45 -140 89 -279 99 -309 l17 -53 47 143 c26 79 78
241 116 359 l68 215 82 3 81 3 0 -461 0 -461 -67 3 -67 3 3 195 c1 107 4 249
6 315 3 139 9 146 -79 -110 -30 -88 -73 -215 -96 -282 l-42 -123 -53 0 -53 0
-107 320 c-59 176 -108 320 -109 320 -1 0 0 -76 7 -477 l3 -163 -68 0 -68 0 0
460 0 461 82 -3 83 -3 17 -50z"/>
<path d="M720 1409 l0 -172 81 7 c121 10 162 32 192 106 24 59 9 145 -31 183
-39 37 -73 47 -163 47 l-79 0 0 -171z"/>
</g>
</svg>
